<svg width="112" height="29" viewBox="0 0 112 29" fill="none" xmlns="http://www.w3.org/2000/svg">
<g clip-path="url(#clip0_276_27271)">
<path fill-rule="evenodd" clip-rule="evenodd" d="M12.2077 1.46833C9.92586 1.75895 7.18948 2.67578 5.34527 3.76771C5.18072 3.86511 5.21498 4.11395 5.39965 4.16269L5.4435 4.17426C5.74217 4.25321 6.33523 4.26001 6.76165 4.18945C7.52719 4.06273 7.53854 4.06872 7.68588 4.66376C7.86715 5.39591 7.68247 5.40749 9.45614 4.55403C11.1759 3.72673 12.0182 3.59522 12.2582 4.1169C12.6111 4.88362 12.319 5.15385 10.0414 6.16743C9.12327 6.57598 8.34467 6.97253 8.31132 7.04869C8.21579 7.26615 8.99893 10.8619 9.14201 10.8623C9.21241 10.8625 10.0543 10.4134 11.0129 9.86435C14.8888 7.64431 20.4738 5.34453 23.9126 4.55283C24.7681 4.35575 25.407 4.16766 25.3321 4.13468C25.2573 4.10171 23.3306 3.48789 21.0505 2.77052C16.5166 1.34401 14.9711 1.11635 12.2077 1.46833ZM31.442 4.40352C23.1626 5.4181 12.1308 10.1214 1.73889 17.0673C0.652768 17.7932 0 19.0179 0 20.3298V20.5425C0 21.8145 0.0546508 22.8553 0.121509 22.8553C0.188367 22.8553 0.843183 22.4149 1.57649 21.8767C3.92789 20.1508 6.15382 19.3085 8.87187 19.1156C10.8677 18.9741 12.3548 19.2516 15.5436 20.36C21.4397 22.41 25.2254 22.7408 28.8323 21.5214C29.4263 21.3205 29.8983 20.8604 30.1168 20.2697L31.8843 15.4912C33.0462 12.3494 34.4523 8.53856 35.0086 7.0227L35.3255 6.15939C35.6597 5.24855 34.98 4.28422 34.0149 4.30039C32.9121 4.31897 31.7542 4.36534 31.442 4.40352ZM19.7978 11.2559C20.592 12.4915 19.3264 14.2736 18.4489 13.1553C18.1062 12.719 18.0836 11.7276 18.4045 11.2283C18.7191 10.739 19.4752 10.754 19.7978 11.2559ZM16.9231 12.9774C17.13 13.617 16.8252 14.6262 16.3772 14.7845C15.518 15.0884 14.8574 14.1999 15.1302 13.1076C15.4076 11.9968 16.5782 11.9119 16.9231 12.9774ZM13.7046 13.9518C14.6311 15.2562 13.3494 17.0883 12.3942 15.8249C12.2137 15.5859 12.0658 15.1769 12.0658 14.9162C12.0658 14.3304 12.6593 13.4611 13.0594 13.4611C13.2226 13.4611 13.513 13.682 13.7046 13.9518ZM7.87284 20.2793C6.17171 20.5314 4.12975 21.3271 2.65773 22.3115C1.43796 23.1272 -0.420597 24.6718 0.212925 24.3434C4.89586 21.9149 9.30298 21.6315 14.1133 23.4493C14.978 23.7761 16.1646 24.2284 16.7502 24.4545C22.4191 26.6426 28.5592 25.4183 32.4711 21.3198C33.3165 20.4341 33.6112 19.8958 32.9093 20.5197C32.2744 21.084 29.9524 22.2732 28.6431 22.705C27.5081 23.0792 26.9024 23.1397 24.2735 23.1425C20.7876 23.1463 19.6242 22.9156 15.2457 21.3531C13.023 20.5599 10.2434 19.9751 9.22675 20.0868C9.10964 20.0996 8.50039 20.1862 7.87284 20.2793ZM5.81996 23.8744C4.12095 24.0921 2.39498 24.8451 1.04944 25.9553C0.267859 26.6004 0.258065 26.7185 1.01792 26.3412C3.94437 24.8872 7.39148 24.924 11.1431 26.4489C14.4516 27.7939 17.1858 27.936 19.802 26.8994L20.0452 26.803C20.2284 26.7304 20.2073 26.4629 20.0149 26.4203C19.6637 26.3426 18.45 26.18 17.3179 26.0592C14.686 25.7781 13.9273 25.6086 11.0721 24.6642C8.53319 23.8246 7.46402 23.6637 5.81996 23.8744ZM11.1431 23.8581C11.7623 24.1513 15.0695 25.0884 15.1392 24.9901C15.234 24.8566 12.3546 23.89 11.498 23.7678C10.8531 23.6756 10.7913 23.6914 11.1431 23.8581Z" fill="white"/>
<path d="M49.1988 22.8925C54.2362 22.8925 56.9586 20.2307 56.9586 15.9819V15.7516H52.8879V15.8796C52.8879 18.3366 51.8701 19.1812 49.1733 19.1812C46.2983 19.1812 45.1026 18.1319 45.1026 14.0623C45.1026 9.9928 46.2983 8.9434 49.1733 8.9434C51.8701 8.9434 52.8879 9.78803 52.8879 12.2451V12.3731H56.9586V12.1427C56.9586 7.89402 54.2362 5.23218 49.1988 5.23218C44.0849 5.23218 41.0318 8.71306 41.0318 14.0623C41.0318 19.4117 44.0849 22.8925 49.1988 22.8925ZM61.6 22.6366V14.5742C61.6 13.1665 62.1598 12.757 63.3301 12.757C64.5259 12.757 64.9584 13.1921 64.9584 14.5742V15.2654H68.7493V14.088C68.7493 11.5029 67.7571 9.50649 65.0856 9.50649C63.2792 9.50649 62.1343 10.5303 61.4983 11.8356H61.3456V9.76244H57.8092V22.6366H61.6ZM73.7437 22.8925C75.9825 22.8925 77.331 21.8687 78.0434 20.3843H78.1707V22.6366H81.7071V9.76244H77.9162V17.057C77.9162 19.0022 77.1275 19.5909 75.2957 19.5909C73.3875 19.5909 72.7769 18.9509 72.7769 17.1593V9.76244H68.986V17.9271C68.986 20.6658 70.3853 22.8925 73.7437 22.8925ZM86.4869 8.30354V5.48812H82.6959L82.7468 8.30354H86.4869ZM86.5632 22.6366V9.76244H82.7468V22.6366H86.5632ZM99.2797 22.6366V19.2837H93.5552L91.9778 19.3093L91.9524 19.0533L93.5552 17.7224L98.898 12.9874V9.76244H87.1692V13.1154H91.9014L93.7079 13.0641L93.7333 13.3457L91.9014 14.8814L86.7876 19.6932V22.6366H99.2797ZM105.073 22.8925C108.737 22.8925 111.078 21.28 111.078 18.5414V18.2855H107.312V18.4391C107.312 19.2325 106.651 19.5652 105.124 19.5652C103.038 19.5652 102.326 18.8486 102.249 17.057H111.027C111.103 16.6218 111.205 15.8796 111.205 15.1629C111.205 11.81 108.941 9.50649 105.099 9.50649C101.104 9.50649 98.662 12.1172 98.662 16.2378C98.662 20.3074 100.672 22.8925 105.073 22.8925ZM104.972 12.6546C106.753 12.6546 107.618 13.3969 107.541 14.7278H102.275C102.427 13.3713 103.14 12.6546 104.972 12.6546Z" fill="white"/>
</g>
<defs>
<clipPath id="clip0_276_27271">
<rect width="112" height="28.9032" fill="white"/>
</clipPath>
</defs>
</svg>
